# xmcd
#
# Track frame offsets:
#  150
#  10717
#  21243
#  33043
#  43130
#  53774
#  66481
#  79515
#  90090
#  102336
#  115231
#
# Disc length: 1673 seconds
#
# Revision: 0
# Processed by: cddbd v1.5.1PL0 Copyright (c) Steve Scherf et al.
# Submitted via: Collectorz.com Music Collector 6.9
#
DISCID=7b06870b
DTITLE=Lynn, Loretta - You're Lookin' At Country
DYEAR=1900
DGENRE=Country
TTITLE0=Your're Lookin' At Country
TTITLE1=Love Whatcha Got At Home
TTITLE2=Take Me Home, Country Roads
TTITLE3=Kinfolks Holler
TTITLE4=Close My Eyes
TTITLE5=Indian Lake
TTITLE6=I'd rather Be Sorry
TTITLE7=From Now On
TTITLE8=You Can't Hold On To Love
TTITLE9=Country Girl (Just Home From Town)
TTITLE10=I Burn't The Little Roadside Tavern Down
EXTD=
EXTT0=
EXTT1=
EXTT2=
EXTT3=
EXTT4=
EXTT5=
EXTT6=
EXTT7=
EXTT8=
EXTT9=
EXTT10=
PLAYORDER=
